<?xml version="1.0" encoding="UTF-8"?>
<svg id="Symbols" xmlns="http://www.w3.org/2000/svg" viewBox="0 0 108.89 108.89">
  <defs>
    <style>
      .cls-1 {
        fill: none;
        stroke: #000;
        stroke-miterlimit: 10;
        stroke-width: 4px;
      }
    </style>
  </defs>
  <path class="cls-1" d="M100.44,60.1l5.62-5.66-19.8-19.8-14.14,14.14-12-12,14.12-14.16-5.66-5.66-14.14,14.15-8.49-8.49,14.15-14.18-5.66-5.62-14.14,14.14h0l-5.66,5.66,5.66,5.66h0l8.48,8.48-12,12-14.16-14.12-5.66,5.66,14.15,14.14-8.49,8.49-14.18-14.15-5.62,5.66,19.8,19.8,14.14-14.14,12,12-14.12,14.16,5.66,5.66,14.14-14.15,8.49,8.49-14.15,14.18,5.66,5.62,14.14-14.14h0l5.66-5.66-5.66-5.66h0l-8.48-8.48,12-12,14.16,14.12,5.66-5.66-14.15-14.14,8.49-8.49,14.18,14.15ZM54.44,66.44l-12-12,12-12,12,12-12,12Z"/>
</svg>