<?xml version="1.0" encoding="utf-8"?>
<!-- Generator: Adobe Illustrator 28.3.0, SVG Export Plug-In . SVG Version: 6.00 Build 0)  -->
<svg version="1.1" id="logo" xmlns="http://www.w3.org/2000/svg" xmlns:xlink="http://www.w3.org/1999/xlink" x="0px" y="0px"
	 viewBox="0 0 800 800" style="enable-background:new 0 0 800 800;" xml:space="preserve">
<style type="text/css">
	.st0{enable-background:new    ;}
	.st1{fill:#438CD3;}
	.st2{fill:#272727;}
</style>
<g id="Reperatur__x26__Tarifberatung" class="st0">
	<path class="st1" d="M104.15,673.04h-1.12v19.28h-4.29V650.1h7.82c2.39,0,4.45,0.26,6.19,0.79s3.18,1.29,4.31,2.27
		s1.97,2.19,2.52,3.62s0.82,3.05,0.82,4.85c0,1.59-0.25,3.04-0.75,4.35s-1.24,2.45-2.21,3.4s-2.18,1.73-3.62,2.32s-3.11,0.96-5,1.11
		l13.62,19.5h-4.98L104.15,673.04z M115.4,658.34c-0.39-0.99-1.02-1.83-1.87-2.5s-1.96-1.18-3.29-1.53s-2.96-0.52-4.85-0.52h-2.35
		v15.86h3.47c1.55,0,2.91-0.18,4.09-0.55s2.16-0.88,2.97-1.56s1.41-1.5,1.82-2.46s0.62-2.06,0.62-3.28
		C115.99,660.49,115.79,659.34,115.4,658.34z"/>
	<path class="st1" d="M128.3,683.69c0.53,1.27,1.24,2.34,2.15,3.23s1.96,1.57,3.16,2.05s2.49,0.72,3.86,0.72
		c2.02,0,3.78-0.5,5.26-1.49s2.72-2.33,3.71-4.01l3.42,0.9c-0.56,1.26-1.28,2.37-2.15,3.35s-1.85,1.8-2.95,2.46s-2.3,1.17-3.58,1.52
		s-2.63,0.52-4.03,0.52c-2.08,0-3.96-0.36-5.63-1.09s-3.11-1.73-4.31-2.99s-2.11-2.76-2.76-4.48s-0.97-3.58-0.97-5.56
		c0-1.95,0.33-3.78,0.98-5.5s1.58-3.21,2.76-4.48s2.61-2.28,4.27-3.02s3.49-1.11,5.5-1.11c2.13,0,4.03,0.36,5.7,1.07
		s3.08,1.71,4.22,3.01s2.02,2.84,2.61,4.65s0.88,3.81,0.86,6.02h-22.91C127.48,681.01,127.77,682.42,128.3,683.69z M145.33,673.15
		c-0.46-1.06-1.06-1.98-1.8-2.76s-1.66-1.39-2.75-1.83s-2.36-0.66-3.81-0.66c-1.31,0-2.52,0.22-3.61,0.67s-2.05,1.06-2.87,1.85
		s-1.48,1.7-1.98,2.76s-0.82,2.2-0.94,3.42h18.76C146.11,675.36,145.79,674.21,145.33,673.15z"/>
	<path class="st1" d="M182.15,684.25c-0.65,1.75-1.55,3.27-2.71,4.55s-2.55,2.3-4.17,3.04s-3.42,1.11-5.39,1.11
		c-0.98,0-1.96-0.11-2.94-0.34s-1.9-0.56-2.76-0.98s-1.65-0.95-2.37-1.57s-1.3-1.32-1.78-2.11h-0.11v19.66h-4.1v-42.27h4.1v4.18
		h0.11c0.55-0.77,1.19-1.45,1.91-2.05s1.53-1.11,2.39-1.52s1.78-0.72,2.73-0.93s1.93-0.31,2.91-0.31c1.99,0,3.79,0.36,5.4,1.07
		s2.99,1.69,4.14,2.94s2.03,2.72,2.65,4.42s0.93,3.52,0.93,5.47C183.12,680.61,182.8,682.5,182.15,684.25z M178.59,674.65
		c-0.46-1.28-1.13-2.39-1.98-3.34s-1.89-1.7-3.09-2.26s-2.54-0.83-4.02-0.83s-2.82,0.27-4.03,0.81s-2.24,1.27-3.09,2.2
		s-1.5,2.01-1.97,3.25s-0.7,2.57-0.7,3.99c0,1.46,0.21,2.85,0.63,4.17s1.04,2.48,1.86,3.49s1.83,1.8,3.04,2.39s2.59,0.89,4.16,0.89
		c1.49,0,2.85-0.3,4.07-0.89s2.26-1.38,3.12-2.37s1.52-2.12,2-3.42s0.71-2.64,0.71-4.05C179.29,677.28,179.06,675.93,178.59,674.65z
		"/>
	<path class="st1" d="M210.33,687.61h-0.11c-0.42,0.84-0.99,1.59-1.71,2.26s-1.52,1.23-2.41,1.68s-1.82,0.8-2.8,1.04
		s-1.97,0.36-2.95,0.36c-1.97,0-3.76-0.36-5.39-1.08s-3.02-1.72-4.18-2.99s-2.07-2.78-2.72-4.53s-0.97-3.62-0.97-5.65
		c0-1.95,0.32-3.78,0.96-5.48s1.54-3.19,2.69-4.44s2.55-2.25,4.18-2.98s3.44-1.09,5.43-1.09c1,0,1.98,0.11,2.94,0.34
		s1.87,0.56,2.73,1s1.65,0.97,2.37,1.6s1.32,1.35,1.83,2.17h0.11v-4.48h4.07v26.99h-4.07L210.33,687.61L210.33,687.61z
		 M209.79,674.48c-0.46-1.25-1.13-2.35-1.98-3.29s-1.89-1.7-3.1-2.24s-2.56-0.82-4.03-0.82c-1.51,0-2.87,0.28-4.06,0.83
		s-2.21,1.31-3.05,2.27s-1.48,2.08-1.91,3.38s-0.66,2.68-0.66,4.16c0,1.42,0.23,2.78,0.7,4.07s1.13,2.44,1.98,3.43
		s1.9,1.79,3.12,2.38s2.58,0.89,4.07,0.89c1.55,0,2.92-0.3,4.12-0.9s2.2-1.41,3.02-2.43s1.44-2.2,1.86-3.53s0.63-2.73,0.63-4.18
		C210.49,677.06,210.26,675.72,209.79,674.48z"/>
	<path class="st1" d="M232.58,668.75c-0.51-0.11-1.03-0.16-1.56-0.16c-1.71,0-3.04,0.82-3.96,2.46s-1.39,4.19-1.39,7.66v13.62h-4.1
		v-26.99h4.1v3.69h0.11c0.64-1.46,1.49-2.53,2.56-3.23s2.36-1.04,3.87-1.04c0.47,0,0.93,0.05,1.37,0.16s0.87,0.25,1.29,0.41
		l-0.9,3.91C233.55,669.02,233.09,668.86,232.58,668.75z"/>
	<path class="st1" d="M259.49,687.61h-0.11c-0.42,0.84-0.99,1.59-1.71,2.26s-1.52,1.23-2.41,1.68s-1.82,0.8-2.8,1.04
		s-1.97,0.36-2.95,0.36c-1.97,0-3.76-0.36-5.39-1.08s-3.02-1.72-4.18-2.99s-2.07-2.78-2.72-4.53s-0.97-3.62-0.97-5.65
		c0-1.95,0.32-3.78,0.96-5.48s1.54-3.19,2.69-4.44s2.55-2.25,4.18-2.98s3.44-1.09,5.43-1.09c1,0,1.98,0.11,2.94,0.34
		s1.87,0.56,2.73,1s1.65,0.97,2.37,1.6s1.32,1.35,1.83,2.17h0.11v-4.48h4.07v26.99h-4.07V687.61z M258.96,674.48
		c-0.46-1.25-1.13-2.35-1.98-3.29s-1.89-1.7-3.1-2.24s-2.56-0.82-4.03-0.82c-1.51,0-2.87,0.28-4.06,0.83s-2.21,1.31-3.05,2.27
		s-1.48,2.08-1.91,3.38s-0.66,2.68-0.66,4.16c0,1.42,0.23,2.78,0.7,4.07s1.13,2.44,1.98,3.43s1.9,1.79,3.12,2.38
		s2.58,0.89,4.07,0.89c1.55,0,2.92-0.3,4.12-0.9s2.2-1.41,3.02-2.43s1.44-2.2,1.86-3.53s0.63-2.73,0.63-4.18
		C259.65,677.06,259.42,675.72,258.96,674.48z"/>
	<path class="st1" d="M276.33,692.32h-4.07v-23.35h-3.04v-3.64h3.04v-9.3h4.07v9.3h4.87v3.64h-4.87V692.32z"/>
	<path class="st1" d="M304.23,690.08c-1.79,1.91-4.44,2.87-7.96,2.87c-1.82,0-3.41-0.27-4.76-0.81s-2.46-1.31-3.34-2.31
		s-1.53-2.21-1.96-3.62s-0.64-2.99-0.64-4.74v-16.13h4.1v15.56c0,1.22,0.09,2.37,0.27,3.43s0.52,1.99,1.03,2.76s1.19,1.39,2.05,1.83
		s1.98,0.67,3.35,0.67s2.47-0.22,3.31-0.66s1.49-1.04,1.96-1.82s0.78-1.7,0.94-2.76s0.25-2.22,0.25-3.46v-15.56h4.07v16.13
		C306.9,685.29,306.01,688.16,304.23,690.08z"/>
	<path class="st1" d="M325.2,668.75c-0.51-0.11-1.03-0.16-1.56-0.16c-1.71,0-3.04,0.82-3.96,2.46s-1.39,4.19-1.39,7.66v13.62h-4.1
		v-26.99h4.1v3.69h0.11c0.64-1.46,1.49-2.53,2.56-3.23s2.36-1.04,3.87-1.04c0.47,0,0.93,0.05,1.37,0.16s0.87,0.25,1.29,0.41
		l-0.9,3.91C326.16,669.02,325.71,668.86,325.2,668.75z"/>
	<path class="st1" d="M369.85,687.12c-2.06,2.04-4.17,3.57-6.34,4.58s-4.5,1.52-7,1.52c-1.49,0-2.98-0.29-4.44-0.86
		s-2.78-1.38-3.95-2.42s-2.11-2.28-2.83-3.73s-1.08-3.05-1.08-4.8c0-1.37,0.17-2.67,0.52-3.9s0.92-2.39,1.71-3.47
		s1.84-2.11,3.14-3.06s2.92-1.85,4.85-2.69c-1.57-1.68-2.69-3.31-3.38-4.91s-1.03-3.17-1.03-4.72c0-1.35,0.23-2.59,0.68-3.73
		s1.11-2.13,1.96-2.98s1.86-1.51,3.05-1.98s2.52-0.71,3.99-0.71c1.37,0,2.62,0.24,3.75,0.72s2.09,1.13,2.88,1.93
		s1.41,1.73,1.85,2.78s0.66,2.14,0.66,3.27c0,2.48-0.77,4.68-2.3,6.6s-3.74,3.54-6.62,4.85l10.09,12.55
		c0.42-0.53,0.86-1.15,1.31-1.87s0.9-1.46,1.33-2.21s0.83-1.51,1.2-2.26s0.68-1.41,0.92-2l2.9,1.8c-0.26,0.64-0.58,1.36-0.98,2.16
		s-0.84,1.62-1.33,2.45s-0.99,1.65-1.52,2.45s-1.04,1.52-1.53,2.16l6.32,7.74h-4.48L369.85,687.12z M352.61,672.97
		c-1.07,0.72-1.92,1.49-2.57,2.31s-1.11,1.71-1.39,2.67s-0.42,2.01-0.42,3.16c0,1.08,0.22,2.12,0.67,3.13s1.07,1.91,1.86,2.68
		s1.74,1.39,2.83,1.86s2.28,0.7,3.55,0.7c0.8,0,1.62-0.09,2.46-0.26s1.69-0.46,2.56-0.86s1.75-0.93,2.65-1.59s1.82-1.46,2.75-2.41
		l-10.99-13.48C354.99,671.55,353.68,672.25,352.61,672.97z M364.76,656.22c-0.24-0.69-0.58-1.3-1.04-1.83s-1.02-0.96-1.68-1.29
		s-1.43-0.49-2.28-0.49c-0.89,0-1.7,0.16-2.43,0.46s-1.35,0.73-1.87,1.27s-0.92,1.17-1.2,1.9s-0.42,1.51-0.42,2.35
		c0,1.24,0.31,2.55,0.93,3.92s1.63,2.85,3.04,4.42c2.42-1.08,4.25-2.36,5.48-3.84s1.85-3.08,1.85-4.77
		C365.12,657.62,365,656.92,364.76,656.22z"/>
	<path class="st1" d="M409.31,692.32h-4.38v-38.36H394.4v-3.86h25.43v3.86H409.3v38.36H409.31z"/>
	<path class="st1" d="M441.52,687.61h-0.11c-0.42,0.84-0.99,1.59-1.71,2.26s-1.52,1.23-2.41,1.68c-0.88,0.46-1.82,0.8-2.8,1.04
		s-1.97,0.36-2.95,0.36c-1.97,0-3.76-0.36-5.39-1.08c-1.62-0.72-3.02-1.72-4.18-2.99c-1.17-1.28-2.07-2.78-2.72-4.53
		c-0.65-1.74-0.97-3.62-0.97-5.65c0-1.95,0.32-3.78,0.96-5.48c0.64-1.7,1.54-3.19,2.69-4.44c1.16-1.26,2.55-2.25,4.18-2.98
		s3.44-1.09,5.43-1.09c1,0,1.98,0.11,2.94,0.34s1.87,0.56,2.73,1c0.87,0.44,1.65,0.97,2.37,1.6s1.32,1.35,1.83,2.17h0.11v-4.48h4.07
		v26.99h-4.07L441.52,687.61L441.52,687.61z M440.99,674.48c-0.46-1.25-1.13-2.35-1.98-3.29c-0.86-0.95-1.89-1.7-3.1-2.24
		c-1.21-0.55-2.56-0.82-4.03-0.82c-1.51,0-2.87,0.28-4.06,0.83c-1.19,0.56-2.21,1.31-3.05,2.27s-1.48,2.08-1.91,3.38
		s-0.66,2.68-0.66,4.16c0,1.42,0.23,2.78,0.7,4.07s1.12,2.44,1.98,3.43c0.86,0.99,1.9,1.79,3.12,2.38s2.58,0.89,4.07,0.89
		c1.55,0,2.92-0.3,4.12-0.9c1.19-0.6,2.2-1.41,3.02-2.43s1.44-2.2,1.86-3.53c0.42-1.33,0.63-2.73,0.63-4.18
		C441.68,677.06,441.45,675.72,440.99,674.48z"/>
	<path class="st1" d="M463.78,668.75c-0.51-0.11-1.03-0.16-1.56-0.16c-1.71,0-3.04,0.82-3.96,2.46s-1.39,4.19-1.39,7.66v13.62h-4.1
		v-26.99h4.1v3.69h0.11c0.64-1.46,1.49-2.53,2.56-3.23s2.36-1.04,3.87-1.04c0.47,0,0.93,0.05,1.37,0.16s0.87,0.25,1.29,0.41
		l-0.9,3.91C464.74,669.02,464.29,668.86,463.78,668.75z"/>
	<path class="st1" d="M475.67,657.24c-0.15,0.31-0.34,0.58-0.57,0.82c-0.24,0.24-0.52,0.42-0.83,0.56c-0.32,0.14-0.65,0.21-1,0.21
		c-0.37,0-0.71-0.07-1.04-0.21s-0.61-0.32-0.85-0.56c-0.24-0.24-0.42-0.51-0.56-0.82s-0.21-0.64-0.21-0.98
		c0-0.73,0.25-1.34,0.77-1.83c0.51-0.49,1.14-0.74,1.89-0.74c0.35,0,0.68,0.06,1,0.19s0.6,0.31,0.83,0.55
		c0.24,0.24,0.43,0.51,0.57,0.82c0.15,0.31,0.22,0.65,0.22,1.01C475.89,656.6,475.82,656.93,475.67,657.24z M471.19,665.33h4.07
		v26.99h-4.07V665.33z"/>
	<path class="st1" d="M488.08,692.32h-4.07v-23.35h-3.09v-3.64h3.09v-10.64c0-1.62,0.2-3.02,0.6-4.2s0.96-2.14,1.67-2.9
		s1.56-1.31,2.56-1.67c0.99-0.36,2.07-0.53,3.24-0.53c0.38,0,0.85,0.04,1.41,0.12s1.02,0.21,1.38,0.37v3.69
		c-0.73-0.33-1.53-0.49-2.41-0.49c-0.69,0-1.31,0.1-1.86,0.31s-1.01,0.56-1.38,1.05s-0.66,1.14-0.85,1.96s-0.29,1.83-0.29,3.05v9.87
		h6.78v3.64h-6.78V692.32z"/>
	<path class="st1" d="M525.09,684.25c-0.65,1.75-1.55,3.27-2.71,4.55s-2.55,2.3-4.17,3.04s-3.42,1.11-5.39,1.11
		c-0.98,0-1.97-0.12-2.97-0.36s-1.93-0.58-2.8-1.03s-1.66-1-2.37-1.67s-1.27-1.43-1.71-2.28h-0.11v4.7h-4.1v-46.27h4.1v23.76h0.11
		c0.51-0.82,1.13-1.54,1.86-2.17s1.53-1.16,2.39-1.6s1.79-0.77,2.76-1s1.96-0.34,2.94-0.34c1.99,0,3.79,0.36,5.4,1.07
		s2.99,1.69,4.14,2.94s2.03,2.72,2.65,4.42s0.93,3.52,0.93,5.47C526.07,680.61,525.74,682.5,525.09,684.25z M521.51,674.54
		c-0.45-1.29-1.08-2.42-1.91-3.36s-1.85-1.7-3.05-2.24s-2.57-0.82-4.1-0.82c-1.48,0-2.82,0.27-4.03,0.82s-2.24,1.29-3.09,2.24
		s-1.5,2.05-1.97,3.29s-0.7,2.58-0.7,4.01c0,1.46,0.21,2.85,0.63,4.18s1.04,2.51,1.86,3.53s1.83,1.83,3.04,2.43s2.59,0.9,4.16,0.9
		c1.5,0,2.85-0.3,4.06-0.9s2.25-1.4,3.1-2.41s1.52-2.16,1.98-3.46s0.7-2.66,0.7-4.06C522.18,677.22,521.96,675.84,521.51,674.54z"/>
	<path class="st1" d="M534.57,683.69c0.53,1.27,1.24,2.34,2.15,3.23s1.96,1.57,3.16,2.05s2.49,0.72,3.86,0.72
		c2.02,0,3.78-0.5,5.26-1.49s2.72-2.33,3.71-4.01l3.42,0.9c-0.57,1.26-1.28,2.37-2.15,3.35s-1.85,1.8-2.95,2.46s-2.3,1.17-3.58,1.52
		s-2.63,0.52-4.03,0.52c-2.08,0-3.96-0.36-5.63-1.09s-3.11-1.73-4.31-2.99s-2.11-2.76-2.76-4.48s-0.97-3.58-0.97-5.56
		c0-1.95,0.33-3.78,0.98-5.5s1.58-3.21,2.76-4.48s2.61-2.28,4.27-3.02s3.49-1.11,5.5-1.11c2.13,0,4.03,0.36,5.7,1.07
		s3.08,1.71,4.22,3.01s2.02,2.84,2.61,4.65s0.88,3.81,0.86,6.02h-22.91C533.76,681.01,534.04,682.42,534.57,683.69z M551.6,673.15
		c-0.46-1.06-1.06-1.98-1.8-2.76s-1.66-1.39-2.75-1.83s-2.36-0.66-3.81-0.66c-1.31,0-2.52,0.22-3.61,0.67s-2.05,1.06-2.87,1.85
		s-1.48,1.7-1.98,2.76s-0.82,2.2-0.94,3.42h18.76C552.39,675.36,552.06,674.21,551.6,673.15z"/>
	<path class="st1" d="M573.12,668.75c-0.51-0.11-1.03-0.16-1.56-0.16c-1.71,0-3.04,0.82-3.96,2.46s-1.39,4.19-1.39,7.66v13.62h-4.1
		v-26.99h4.1v3.69h0.11c0.64-1.46,1.49-2.53,2.56-3.23s2.36-1.04,3.87-1.04c0.47,0,0.93,0.05,1.37,0.16s0.87,0.25,1.29,0.41
		l-0.9,3.91C574.09,669.02,573.63,668.86,573.12,668.75z"/>
	<path class="st1" d="M600.03,687.61h-0.11c-0.42,0.84-0.99,1.59-1.71,2.26s-1.52,1.23-2.41,1.68s-1.82,0.8-2.8,1.04
		s-1.97,0.36-2.95,0.36c-1.97,0-3.76-0.36-5.39-1.08s-3.02-1.72-4.18-2.99s-2.07-2.78-2.72-4.53s-0.97-3.62-0.97-5.65
		c0-1.95,0.32-3.78,0.96-5.48s1.54-3.19,2.69-4.44s2.55-2.25,4.18-2.98s3.44-1.09,5.43-1.09c1,0,1.98,0.11,2.94,0.34
		s1.87,0.56,2.73,1s1.65,0.97,2.37,1.6s1.32,1.35,1.83,2.17h0.11v-4.48h4.07v26.99h-4.07L600.03,687.61L600.03,687.61z
		 M599.5,674.48c-0.46-1.25-1.13-2.35-1.98-3.29s-1.89-1.7-3.1-2.24s-2.56-0.82-4.03-0.82c-1.51,0-2.87,0.28-4.06,0.83
		s-2.21,1.31-3.05,2.27s-1.48,2.08-1.91,3.38s-0.66,2.68-0.66,4.16c0,1.42,0.23,2.78,0.7,4.07s1.13,2.44,1.98,3.43
		s1.9,1.79,3.12,2.38s2.58,0.89,4.07,0.89c1.55,0,2.92-0.3,4.12-0.9s2.2-1.41,3.02-2.43s1.44-2.2,1.86-3.53s0.63-2.73,0.63-4.18
		C600.19,677.06,599.96,675.72,599.5,674.48z"/>
	<path class="st1" d="M616.87,692.32h-4.07v-23.35h-3.04v-3.64h3.04v-9.3h4.07v9.3h4.87v3.64h-4.87V692.32z"/>
	<path class="st1" d="M644.76,690.08c-1.79,1.91-4.44,2.87-7.96,2.87c-1.82,0-3.41-0.27-4.76-0.81s-2.46-1.31-3.34-2.31
		s-1.53-2.21-1.96-3.62s-0.64-2.99-0.64-4.74v-16.13h4.1v15.56c0,1.22,0.09,2.37,0.27,3.43s0.52,1.99,1.03,2.76s1.18,1.39,2.05,1.83
		s1.98,0.67,3.35,0.67s2.47-0.22,3.31-0.66s1.49-1.04,1.96-1.82s0.78-1.7,0.94-2.76s0.25-2.22,0.25-3.46v-15.56h4.07v16.13
		C647.44,685.29,646.55,688.16,644.76,690.08z"/>
	<path class="st1" d="M672.08,675.8c0-1.15-0.09-2.2-0.27-3.14s-0.5-1.76-0.94-2.45s-1.06-1.21-1.85-1.59s-1.78-0.56-2.98-0.56
		c-1.17,0-2.2,0.25-3.09,0.74s-1.65,1.18-2.26,2.05s-1.08,1.91-1.39,3.09s-0.48,2.46-0.48,3.83v14.55h-4.1v-26.99h4.1v3.86h0.11
		c0.84-1.42,1.96-2.52,3.35-3.31s3.06-1.18,4.99-1.18c2.84,0,5.04,0.87,6.59,2.6s2.32,4.27,2.32,7.6v17.42h-4.1V675.8z"/>
	<path class="st1" d="M707.96,697.79c-0.69,1.99-1.65,3.62-2.88,4.91s-2.69,2.24-4.39,2.86s-3.54,0.93-5.52,0.93
		c-1.79,0-3.48-0.24-5.07-0.72s-3-1.2-4.22-2.16s-2.21-2.15-2.98-3.57s-1.22-3.06-1.37-4.92h4.13c0.09,1.22,0.41,2.32,0.94,3.29
		s1.24,1.8,2.11,2.47s1.85,1.19,2.97,1.54s2.28,0.53,3.5,0.53c1.9,0,3.47-0.31,4.72-0.92s2.25-1.48,2.99-2.6s1.28-2.47,1.59-4.06
		s0.46-3.35,0.46-5.3v-2.46h-0.11c-0.42,0.84-0.99,1.59-1.71,2.26s-1.52,1.23-2.41,1.68s-1.82,0.8-2.8,1.04s-1.97,0.36-2.95,0.36
		c-1.97,0-3.76-0.36-5.39-1.08s-3.02-1.72-4.18-2.99s-2.07-2.78-2.72-4.53s-0.97-3.62-0.97-5.65c0-1.95,0.32-3.78,0.96-5.48
		s1.54-3.19,2.69-4.44s2.55-2.25,4.18-2.98s3.44-1.09,5.43-1.09c1,0,1.98,0.11,2.94,0.34s1.87,0.56,2.73,1s1.65,0.97,2.37,1.6
		s1.32,1.35,1.83,2.17h0.11v-4.48H709v25.38C709,693.44,708.65,695.8,707.96,697.79z M704.39,674.48c-0.46-1.25-1.13-2.35-1.98-3.29
		s-1.89-1.7-3.1-2.24s-2.56-0.82-4.03-0.82c-1.5,0-2.84,0.27-4.03,0.82s-2.21,1.3-3.05,2.26s-1.48,2.08-1.93,3.38
		s-0.67,2.69-0.67,4.18c0,1.39,0.23,2.73,0.7,4.02s1.13,2.44,1.98,3.45s1.9,1.8,3.12,2.41s2.58,0.9,4.07,0.9
		c1.55,0,2.92-0.3,4.12-0.9s2.2-1.41,3.02-2.43s1.44-2.2,1.86-3.53s0.63-2.73,0.63-4.18C705.08,677.06,704.85,675.72,704.39,674.48z
		"/>
</g>
<g id="HANDY">
	<path class="st2" d="M105.02,454.79v62.04h71.72v-62.04h19.36v148.28h-19.36v-69.52h-71.72v69.52H85.88V454.79H105.02z"/>
	<path class="st2" d="M249.33,556.43l-15.4,46.64h-19.8l50.38-148.28h23.1l50.6,148.28h-20.46l-15.84-46.64H249.33z M297.95,541.47
		l-14.52-42.68c-3.3-9.68-5.5-18.48-7.7-27.06h-0.44c-2.2,8.8-4.62,17.82-7.48,26.84l-14.52,42.9H297.95z"/>
	<path class="st2" d="M356.03,603.07V454.79h20.9l47.52,75.02c11,17.38,19.58,33,26.62,48.18l0.44-0.22
		c-1.76-19.8-2.2-37.84-2.2-60.94v-62.04h18.04v148.28h-19.36l-47.08-75.24c-10.34-16.5-20.24-33.44-27.72-49.5l-0.66,0.22
		c1.1,18.7,1.54,36.52,1.54,61.16v63.36H356.03z"/>
	<path class="st2" d="M496.83,456.77c11.66-1.76,25.52-3.08,40.7-3.08c27.5,0,47.08,6.38,60.06,18.48
		c13.2,12.1,20.9,29.26,20.9,53.24c0,24.2-7.48,44-21.34,57.64c-13.86,13.86-36.74,21.34-65.56,21.34
		c-13.64,0-25.08-0.66-34.76-1.76L496.83,456.77L496.83,456.77z M515.97,587.89c4.84,0.88,11.88,1.1,19.36,1.1
		c40.92,0,63.14-22.88,63.14-62.92c0.22-34.98-19.58-57.2-60.06-57.2c-9.9,0-17.38,0.88-22.44,1.98V587.89z"/>
	<path class="st2" d="M666.23,603.07v-62.92l-46.86-85.36h21.78l20.9,40.92c5.72,11.22,10.12,20.24,14.74,30.58h0.44
		c4.18-9.68,9.24-19.36,14.96-30.58l21.34-40.92h21.78l-49.72,85.14v63.14L666.23,603.07L666.23,603.07z"/>
</g>
<g id="icon">
	<g>
		<path class="st1" d="M265.29,231.11h-20v-89.49c0-39.65,32.62-60.39,64.84-60.39s64.84,20.74,64.84,60.39h-20
			c0-12.64-4.53-22.75-13.46-30.05c-8.05-6.57-19.48-10.34-31.38-10.34c-11.89,0-23.33,3.77-31.38,10.34
			c-8.93,7.3-13.46,17.41-13.46,30.05V231.11z"/>
	</g>
	<g>
		<path class="st1" d="M374.98,231.13h-20v-89.52c0-39.62,32.69-60.35,64.98-60.35s64.99,20.73,64.99,60.35v89.51h-20v-89.51
			c0-12.62-4.54-22.72-13.5-30.01c-8.08-6.57-19.55-10.34-31.49-10.34s-23.41,3.77-31.49,10.34c-8.96,7.29-13.5,17.39-13.5,30.01
			L374.98,231.13L374.98,231.13z"/>
	</g>
	<g>
		<path class="st1" d="M310.15,401.77c-16.7,0-32.36-5.27-44.12-14.83c-13.65-11.11-20.87-26.86-20.87-45.52v-89.51h20v89.51
			c0,12.62,4.54,22.72,13.5,30.01c8.08,6.57,19.55,10.34,31.49,10.34s23.41-3.77,31.49-10.34c8.96-7.29,13.5-17.39,13.5-30.01V251.9
			h20v89.52C375.13,381.04,342.44,401.77,310.15,401.77z"/>
	</g>
	<g>
		<path class="st1" d="M544.84,401.7H464.3c-20.59,0-37.92-8.35-50.1-24.16c-10.41-13.5-16.14-31.51-16.14-50.69
			s5.73-37.19,16.14-50.69c12.18-15.81,29.51-24.16,50.1-24.16h80.53v20H464.3c-14.36,0-25.89,5.51-34.26,16.37
			c-7.61,9.88-11.98,23.9-11.98,38.48c0,26.42,14.47,54.85,46.24,54.85h80.54L544.84,401.7L544.84,401.7z"/>
	</g>
</g>
</svg>
