<?xml version="1.0" encoding="utf-8"?>
<!-- Generator: Adobe Illustrator 28.3.0, SVG Export Plug-In . SVG Version: 6.00 Build 0)  -->
<svg version="1.1" id="logo" xmlns="http://www.w3.org/2000/svg" xmlns:xlink="http://www.w3.org/1999/xlink" x="0px" y="0px"
	 viewBox="0 0 800 800" style="enable-background:new 0 0 800 800;" xml:space="preserve">
<style type="text/css">
	.st0{fill:#438CD3;}
</style>
<g id="icon">
	<g>
		<path class="st0" d="M270.29,389.61h-20v-89.49c0-39.65,32.62-60.39,64.84-60.39s64.84,20.74,64.84,60.39h-20
			c0-12.64-4.53-22.75-13.46-30.05c-8.05-6.57-19.48-10.34-31.38-10.34c-11.89,0-23.33,3.77-31.38,10.34
			c-8.93,7.3-13.46,17.41-13.46,30.05V389.61z"/>
	</g>
	<g>
		<path class="st0" d="M379.98,389.63h-20v-89.52c0-39.62,32.69-60.35,64.98-60.35s64.99,20.73,64.99,60.35v89.51h-20v-89.51
			c0-12.62-4.54-22.72-13.5-30.01c-8.08-6.57-19.55-10.34-31.49-10.34s-23.41,3.77-31.49,10.34c-8.96,7.29-13.5,17.39-13.5,30.01
			L379.98,389.63L379.98,389.63z"/>
	</g>
	<g>
		<path class="st0" d="M315.15,560.27c-16.7,0-32.36-5.27-44.12-14.83c-13.65-11.11-20.87-26.86-20.87-45.52v-89.51h20v89.51
			c0,12.62,4.54,22.72,13.5,30.01c8.08,6.57,19.55,10.34,31.49,10.34s23.41-3.77,31.49-10.34c8.96-7.29,13.5-17.39,13.5-30.01V410.4
			h20v89.52C380.13,539.54,347.44,560.27,315.15,560.27z"/>
	</g>
	<g>
		<path class="st0" d="M549.84,560.2H469.3c-20.59,0-37.92-8.35-50.1-24.16c-10.41-13.5-16.14-31.51-16.14-50.69
			s5.73-37.19,16.14-50.69c12.18-15.81,29.51-24.16,50.1-24.16h80.53v20H469.3c-14.36,0-25.89,5.51-34.26,16.37
			c-7.61,9.88-11.98,23.9-11.98,38.48c0,26.42,14.47,54.85,46.24,54.85h80.54L549.84,560.2L549.84,560.2z"/>
	</g>
</g>
</svg>
